<svg xmlns="http://www.w3.org/2000/svg" viewBox="0 0 179.64 31.26"><defs><style>.cls-1{fill:#c33c7d;}</style></defs><g id="Layer_2" data-name="Layer 2"><g id="Layer_1-2" data-name="Layer 1"><path class="cls-1" d="M.29.2H3.45C5.6.2,7,.53,7.92,1.22A3.72,3.72,0,0,1,9.18,4.4,4.47,4.47,0,0,1,8.6,6.79,3.52,3.52,0,0,1,7,8.16a8,8,0,0,0,.78,1.43A10.06,10.06,0,0,0,9,11.06a4,4,0,0,0,1.31,1l-.83,1.23a3.29,3.29,0,0,1-1.53-1,11.82,11.82,0,0,1-1.4-1.85,16.78,16.78,0,0,1-1-1.75,14.27,14.27,0,0,1-2.81.23H1.81v4.21H.29ZM1.81,7.44h1.3a7.06,7.06,0,0,0,3.35-.62A2.42,2.42,0,0,0,7.7,4.53,2.43,2.43,0,0,0,6.51,2.19a6.59,6.59,0,0,0-3.16-.58H1.81Z"/><path class="cls-1" d="M20.09.2V1.6H13.85V5.93h6.24v1.4H13.85v4.33h6.24v1.41H12.33V.2Z"/><path class="cls-1" d="M21.48,11.32a8.2,8.2,0,0,0,2.84.54c1.48,0,2.95-.54,2.95-2.12a2,2,0,0,0-1.14-1.83c-.61-.39-3.06-1.54-3.59-2a3,3,0,0,1-1-2.46C21.52,1,23.25,0,25.51,0a8.28,8.28,0,0,1,2.26.34V1.63l0,0a11.39,11.39,0,0,0-2.23-.26c-1.43,0-2.61.46-2.61,2a1.57,1.57,0,0,0,.56,1.3c.63.56,2.63,1.38,3.6,2.07S28.67,8,28.67,9.4c0,2.56-2.14,3.86-4.59,3.86a6,6,0,0,1-2.62-.56V11.33Z"/><path class="cls-1" d="M38.87.2V1.6H32.63V5.93h6.24v1.4H32.63v4.33h6.24v1.41H31.11V.2Z"/><path class="cls-1" d="M42.2,10.07l-1,3H39.6L44,.2h2l4.44,12.87H48.92l-1-3Zm5.2-1.41L45,1.82,42.68,8.66Z"/><path class="cls-1" d="M52.29.2h3.15c2.15,0,3.57.33,4.47,1A3.72,3.72,0,0,1,61.17,4.4a4.47,4.47,0,0,1-.57,2.39A3.59,3.59,0,0,1,59,8.16a7.56,7.56,0,0,0,.79,1.43A8.9,8.9,0,0,0,61,11.06a4,4,0,0,0,1.31,1l-.83,1.23a3.27,3.27,0,0,1-1.54-1,11.77,11.77,0,0,1-1.39-1.85,17.09,17.09,0,0,1-1-1.75,14.23,14.23,0,0,1-2.8.23H53.8v4.21H52.29ZM53.8,7.44h1.3a7,7,0,0,0,3.35-.62,2.42,2.42,0,0,0,1.24-2.29,2.45,2.45,0,0,0-1.18-2.34,6.66,6.66,0,0,0-3.17-.58H53.8Z"/><path class="cls-1" d="M72.93,11.47v1.39a9.11,9.11,0,0,1-1.47.29,9.91,9.91,0,0,1-1.5.11,6.08,6.08,0,0,1-4.81-1.91,7.29,7.29,0,0,1-1.61-4.92,6.87,6.87,0,0,1,1.63-4.58A6.18,6.18,0,0,1,70,0a11.4,11.4,0,0,1,1.5.11A10.34,10.34,0,0,1,72.93.4V1.79l-.07,0a8.82,8.82,0,0,0-1.46-.32A11.74,11.74,0,0,0,70,1.42,4.82,4.82,0,0,0,66.3,2.86a5.49,5.49,0,0,0-1.25,3.76,5.51,5.51,0,0,0,1.24,3.75A4.79,4.79,0,0,0,70,11.85a10,10,0,0,0,1.36-.1,10,10,0,0,0,1.46-.31Z"/><path class="cls-1" d="M76.4,7.38v5.69H74.88V.2H76.4V5.88h6.28V.2h1.51V13.07H82.68V7.38Z"/><path class="cls-1" d="M94.68,13.07H93.17V.2h1.51Z"/><path class="cls-1" d="M99.32,13.07H97.8V.2h1.57l6.23,10V.2h1.51V13.07H105.6L99.32,3Z"/><path class="cls-1" d="M109.48,11.32a8.19,8.19,0,0,0,2.83.54c1.49,0,3-.54,3-2.12a2,2,0,0,0-1.13-1.83c-.61-.39-3.07-1.54-3.59-2a3,3,0,0,1-1-2.46c0-2.43,1.73-3.47,4-3.47a8.28,8.28,0,0,1,2.26.34V1.63l0,0a11.39,11.39,0,0,0-2.23-.26c-1.43,0-2.61.46-2.61,2a1.54,1.54,0,0,0,.56,1.3c.63.56,2.63,1.38,3.6,2.07S116.67,8,116.67,9.4c0,2.56-2.14,3.86-4.59,3.86a6,6,0,0,1-2.63-.56V11.33Z"/><path class="cls-1" d="M125.9.2V1.6h-4V13.07h-1.5V1.6h-4V.2Z"/><path class="cls-1" d="M129.4,13.07h-1.5V.2h1.5Z"/><path class="cls-1" d="M140.88.2V1.6h-4V13.07h-1.5V1.6h-4V.2Z"/><path class="cls-1" d="M152,.2V8.28a5.93,5.93,0,0,1-.76,3.24A3.33,3.33,0,0,1,149.37,13a7,7,0,0,1-2.22.31A6.85,6.85,0,0,1,145,13a3.33,3.33,0,0,1-1.82-1.42,6,6,0,0,1-.75-3.25V.2h1.51V7.79a6.14,6.14,0,0,0,.49,2.77,2.31,2.31,0,0,0,1.22,1.11,4.19,4.19,0,0,0,1.54.21,4.38,4.38,0,0,0,1.63-.23A2.15,2.15,0,0,0,150,10.53a6.25,6.25,0,0,0,.48-2.74V.2Z"/><path class="cls-1" d="M163,.2V1.6h-4V13.07h-1.5V1.6h-4V.2Z"/><path class="cls-1" d="M172,.2V1.6h-6.24V5.93H172v1.4h-6.24v4.33H172v1.41H164.2V.2Z"/><path class="cls-1" d="M2.29,31.07H0V18.2H2.29l5.35,8.56V18.2H9.92V31.07H7.64L2.29,22.51Z"/><path class="cls-1" d="M16,18h2.67l4.5,13.07H20.74l-.92-2.67h-5l-.91,2.67H11.48Zm3.07,8.2-1.74-5.06L15.58,26.2Z"/><path class="cls-1" d="M32.48,18.2v2.19H28.57V31.07H26.29V20.39H22.38V18.2Z"/><path class="cls-1" d="M36.13,18.2v7.24A4.09,4.09,0,0,0,37,28.37a3,3,0,0,0,2.2.69,2.92,2.92,0,0,0,2.2-.69,4,4,0,0,0,.82-2.93V18.2h2.28v7.9a5.66,5.66,0,0,1-.9,3.36,4,4,0,0,1-2.06,1.47,7.09,7.09,0,0,1-2.23.33H39a7,7,0,0,1-2.22-.33,4,4,0,0,1-2.06-1.47,5.58,5.58,0,0,1-.91-3.36V18.2Z"/><path class="cls-1" d="M46.7,18.2h3.69a8.59,8.59,0,0,1,2.63.38A4.56,4.56,0,0,1,55.22,20a4.25,4.25,0,0,1,.93,2.84,4,4,0,0,1-.61,2.23A4.17,4.17,0,0,1,54,26.47a6.68,6.68,0,0,0,1.37,1.85,5.43,5.43,0,0,0,1.87,1.31v.11l-1,1.52a3.3,3.3,0,0,1-1.89-.72,7.33,7.33,0,0,1-1.61-1.63,7.61,7.61,0,0,1-1-1.77,8,8,0,0,1-1.3.08H49v3.85H46.7ZM49,25h1.45a4.55,4.55,0,0,0,2.71-.61,1.88,1.88,0,0,0,.72-1.64,2,2,0,0,0-.72-1.71,4.29,4.29,0,0,0-2.71-.67H49Z"/><path class="cls-1" d="M66.3,18.2v2.19H60.94v3.18h5.21v2.19H60.94v3.11H66.3v2.2H58.65V18.2Z"/><path class="cls-1" d="M77.25,18h2.67l4.5,13.07H82l-.92-2.67h-5l-.91,2.67H72.74Zm3.07,8.2-1.74-5.06L76.84,26.2Z"/><path class="cls-1" d="M88.27,31.07H86V18.2h2.28l5.35,8.56V18.2h2.29V31.07H93.62l-5.35-8.56Z"/><path class="cls-1" d="M98.45,18.2h4.26a7,7,0,0,1,5,1.88,6.22,6.22,0,0,1,1.85,4.53A6.57,6.57,0,0,1,107.91,29a6.64,6.64,0,0,1-5.09,2H98.45Zm2.28,10.68h1.71a4.74,4.74,0,0,0,3.73-1.44,4.28,4.28,0,0,0,1-2.82A4,4,0,0,0,106,21.7a5.2,5.2,0,0,0-3.68-1.31h-1.54Z"/><path class="cls-1" d="M124.73,18.2v2.19h-5.66v3.18h5.46v2.19h-5.46v5.31h-2.28V18.2Z"/><path class="cls-1" d="M125.79,24.62a6.94,6.94,0,0,1,1.73-4.72A6,6,0,0,1,132,18a5.8,5.8,0,0,1,4.43,1.9,7.1,7.1,0,0,1,1.66,4.72,6.9,6.9,0,0,1-1.72,4.72,6,6,0,0,1-4.48,1.92,5.78,5.78,0,0,1-4.42-1.92A7,7,0,0,1,125.79,24.62Zm2.29-.1a5.12,5.12,0,0,0,1,3.25A3.59,3.59,0,0,0,132,29.06a3.44,3.44,0,0,0,2.83-1.23,4.8,4.8,0,0,0,1-3.11,4.77,4.77,0,0,0-1.23-3.38,3.79,3.79,0,0,0-2.71-1.15,3.61,3.61,0,0,0-2.6,1.1A4.47,4.47,0,0,0,128.08,24.52Z"/><path class="cls-1" d="M139.94,18.2h3.69a8.59,8.59,0,0,1,2.63.38A4.63,4.63,0,0,1,148.47,20a4.3,4.3,0,0,1,.92,2.84,4,4,0,0,1-.61,2.23,4.17,4.17,0,0,1-1.59,1.41,6.68,6.68,0,0,0,1.37,1.85,5.43,5.43,0,0,0,1.87,1.31v.11l-1,1.52a3.3,3.3,0,0,1-1.89-.72,7.33,7.33,0,0,1-1.61-1.63,7.61,7.61,0,0,1-1-1.77,8,8,0,0,1-1.3.08h-1.4v3.85h-2.29ZM142.23,25h1.44a4.61,4.61,0,0,0,2.72-.61,1.9,1.9,0,0,0,.71-1.64,2,2,0,0,0-.71-1.71,4.34,4.34,0,0,0-2.72-.67h-1.44Z"/><path class="cls-1" d="M159.54,18.2v2.19h-5.36v3.18h5.21v2.19h-5.21v3.11h5.36v2.2h-7.65V18.2Z"/><path class="cls-1" d="M167.86,20.36a12.75,12.75,0,0,0-2.34-.21,4.89,4.89,0,0,0-1.8.25,1,1,0,0,0-.65.93,1.53,1.53,0,0,0,.71,1.19,6.92,6.92,0,0,0,1.57.86c.28.13.56.24.82.34a7,7,0,0,1,1.65.84,3.75,3.75,0,0,1,1.33,1.67,3.21,3.21,0,0,1,.2,1.14,3.38,3.38,0,0,1-1.8,2.92,7.27,7.27,0,0,1-3.69,1A7.17,7.17,0,0,1,161,30.7V28.55h0a8.92,8.92,0,0,0,1.37.39,8.35,8.35,0,0,0,1.66.18,4.32,4.32,0,0,0,2.14-.48,1.38,1.38,0,0,0,.8-1.18,1.56,1.56,0,0,0-.7-1.2,7.36,7.36,0,0,0-1.55-.84l-.84-.33a6.44,6.44,0,0,1-1.63-.83,3.57,3.57,0,0,1-1.34-1.65,2.94,2.94,0,0,1-.22-1.17,3,3,0,0,1,1.56-2.65,6.54,6.54,0,0,1,3.31-.78,9.29,9.29,0,0,1,2.31.3Z"/><path class="cls-1" d="M179.64,18.2v2.19h-3.91V31.07h-2.28V20.39h-3.91V18.2Z"/></g></g></svg>